<?xml version="1.0" encoding="utf-8"?>
<!-- Generator: Adobe Illustrator 17.1.0, SVG Export Plug-In . SVG Version: 6.00 Build 0)  -->
<!DOCTYPE svg PUBLIC "-//W3C//DTD SVG 1.1//EN" "http://www.w3.org/Graphics/SVG/1.1/DTD/svg11.dtd">
<svg version="1.1" xmlns="http://www.w3.org/2000/svg" xmlns:xlink="http://www.w3.org/1999/xlink" x="0px" y="0px"
	 viewBox="0 0 415.2 206.1" enable-background="new 0 0 415.2 206.1" xml:space="preserve">
<g id="Layer_9">
</g>
<g id="Layer_7">
</g>
<g id="Layer_8">
</g>
<g id="Layer_5">
</g>
<g id="Layer_1">
</g>
<g id="Layer_18">
</g>
<g id="Layer_17">
</g>
<g id="Layer_4">
</g>
<g id="Layer_19">
</g>
<g id="Layer_21">
</g>
<g id="Layer_20">
	<g>
		<path fill="#8F4171" d="M144.8,47.1v45.6h-17.2l-20.4-30.5v20.2h6.2v10.3H88.8V82.4h4.7V47.1h-4.6V36.8h23l19.6,29.4v-19H126V36.8
			h24.1v10.3H144.8z"/>
		<path fill="#8F4171" d="M202.3,36.8v17.7h-13.8v-7.1h-12.8v11h15.2v10.6h-15.2v13h12.8v-7.4h13.8v18.1h-48.2V82.1h5V47.4h-5V36.8
			H202.3z"/>
		<path fill="#8F4171" d="M206.3,92.7V82.4h7L225,67.1l-14.5-19.9h-4.2V36.8h31.7v10.4h-4.6l7.8,10.6l8.2-10.6h-7V36.8H269v10.4
			h-6.8l-12.1,15.4l14.4,19.7h4.6v10.4h-31.9V82.3h4.6l-6.1-8.2l-1.7-2.2l-8.2,10.5h7.1v10.3H206.3z"/>
		<path fill="#8F4171" d="M326,57.6h-11.8V47.4h-6.7v34.7h6.6v10.6h-29.8V82.1h6.6V47.4h-6.9v10.2h-11.8V36.8H326V57.6z"/>
		<path fill="#435969" d="M108.1,126c-0.6,3.6-1.8,8.9-2.3,10.7l-8.4,31.1H80.6l-9-31.9c-0.4-1.4-1.4-5.9-1.7-9.9h-0.3v31.5h4.6
			v10.3H52.6v-10.3h4.3v-35.3h-4.2v-10.3H83l8.1,29.9l7.7-29.9h30.5v10.3h-4.4v35.2h4.4v10.4h-25.3v-10.4h4.5v-26.7V126H108.1z"/>
		<path fill="#435969" d="M132.4,139.6c0-17.3,11.5-29.2,28.1-29.2c19.6,0,28.7,11.8,28.7,29.8c0,18.1-10.1,29.1-28.2,29.1
			C144.3,169.3,132.4,159.6,132.4,139.6z M169.2,140.2c0-9.7-2.6-17.4-8.8-17.4c-4.9-0.1-8.2,7-8.2,16.9c0,10.5,3.8,17.1,8.9,17.1
			C166.1,156.7,169.2,150.1,169.2,140.2z"/>
		<path fill="#435969" d="M224.4,149.9c0.2-2.2,1.3-6.2,2.9-10.2l7.3-17.4h-4.2v-10.4H253v10.4h-3.9l-19.2,45.5h-14.7L194,122.3
			h-4.4v-10.4H219v10.4h-4.3l6.8,17.9c1.3,3.9,2.3,7.4,2.5,9.7H224.4z"/>
		<path fill="#435969" d="M302.5,111.9v17.7h-13.8v-7.1h-12.8v11H291v10.6h-15.2v13h12.8v-7.4h13.8v18.1h-48.2v-10.6h5v-34.7h-5
			v-10.6H302.5z"/>
		<path fill="#435969" d="M332.5,111.9c18.6,0,22.2,7.4,22.2,16.5c0,6.2-5,10.6-11.6,11.6c5.5,0.8,10.5,5.6,10.5,11.4
			c0,3.4,0.5,5.4,1.9,5.4c1.2,0,1.8-1,1.8-2.6v-2.6h5.4v4.4c0,6.6-2.8,12.8-11.7,12.8c-10.5,0-15.5-5.5-15.5-14.9c0-7.3-0.9-9-8-9
			v12.4h4.9v10.6h-25.8v-10.6h4.5v-34.9h-4.5v-10.5H332.5z M327.4,135.9h3.6c4.6,0,7.7-2.2,7.7-6.5c0-4.7-2.6-7.1-7.3-7.1h-4V135.9z
			"/>
	</g>
</g>
<g id="Layer_2">
</g>
<g id="Layer_10">
</g>
<g id="Layer_11">
</g>
<g id="Layer_12">
</g>
<g id="Layer_13">
</g>
<g id="Layer_14" display="none">
</g>
<g id="Layer_15">
</g>
<g id="Layer_16">
</g>
<g id="Layer_6">
</g>
</svg>
